<?xml version="1.0" encoding="UTF-8"?>
<svg xmlns="http://www.w3.org/2000/svg" width="824" height="134" viewBox="0 0 824 134" role="img" aria-label="Work contribution calendar, 324 commits">
  <rect width="100%" height="100%" fill="#0d1117"/>
  <rect x="16" y="16" width="12" height="12" rx="2" fill="#161b22" data-date="2025-05-21" data-count="0"/><rect x="16" y="31" width="12" height="12" rx="2" fill="#161b22" data-date="2025-05-22" data-count="0"/><rect x="16" y="46" width="12" height="12" rx="2" fill="#161b22" data-date="2025-05-23" data-count="0"/><rect x="16" y="61" width="12" height="12" rx="2" fill="#161b22" data-date="2025-05-24" data-count="0"/><rect x="16" y="76" width="12" height="12" rx="2" fill="#161b22" data-date="2025-05-25" data-count="0"/><rect x="16" y="91" width="12" height="12" rx="2" fill="#161b22" data-date="2025-05-26" data-count="0"/><rect x="16" y="106" width="12" height="12" rx="2" fill="#39d353" data-date="2025-05-27" data-count="25"/><rect x="31" y="16" width="12" height="12" rx="2" fill="#39d353" data-date="2025-05-28" data-count="22"/><rect x="31" y="31" width="12" height="12" rx="2" fill="#39d353" data-date="2025-05-29" data-count="15"/><rect x="31" y="46" width="12" height="12" rx="2" fill="#006d32" data-date="2025-05-30" data-count="4"/><rect x="31" y="61" width="12" height="12" rx="2" fill="#161b22" data-date="2025-05-31" data-count="0"/><rect x="31" y="76" width="12" height="12" rx="2" fill="#161b22" data-date="2025-06-01" data-count="0"/><rect x="31" y="91" width="12" height="12" rx="2" fill="#39d353" data-date="2025-06-02" data-count="19"/><rect x="31" y="106" width="12" height="12" rx="2" fill="#161b22" data-date="2025-06-03" data-count="0"/><rect x="46" y="16" width="12" height="12" rx="2" fill="#006d32" data-date="2025-06-04" data-count="5"/><rect x="46" y="31" width="12" height="12" rx="2" fill="#39d353" data-date="2025-06-05" data-count="13"/><rect x="46" y="46" width="12" height="12" rx="2" fill="#161b22" data-date="2025-06-06" data-count="0"/><rect x="46" y="61" width="12" height="12" rx="2" fill="#161b22" data-date="2025-06-07" data-count="0"/><rect x="46" y="76" width="12" height="12" rx="2" fill="#161b22" data-date="2025-06-08" data-count="0"/><rect x="46" y="91" width="12" height="12" rx="2" fill="#39d353" data-date="2025-06-09" data-count="21"/><rect x="46" y="106" width="12" height="12" rx="2" fill="#39d353" data-date="2025-06-10" data-count="19"/><rect x="61" y="16" width="12" height="12" rx="2" fill="#39d353" data-date="2025-06-11" data-count="11"/><rect x="61" y="31" width="12" height="12" rx="2" fill="#26a641" data-date="2025-06-12" data-count="7"/><rect x="61" y="46" width="12" height="12" rx="2" fill="#39d353" data-date="2025-06-13" data-count="12"/><rect x="61" y="61" width="12" height="12" rx="2" fill="#161b22" data-date="2025-06-14" data-count="0"/><rect x="61" y="76" width="12" height="12" rx="2" fill="#161b22" data-date="2025-06-15" data-count="0"/><rect x="61" y="91" width="12" height="12" rx="2" fill="#161b22" data-date="2025-06-16" data-count="0"/><rect x="61" y="106" width="12" height="12" rx="2" fill="#39d353" data-date="2025-06-17" data-count="22"/><rect x="76" y="16" width="12" height="12" rx="2" fill="#39d353" data-date="2025-06-18" data-count="18"/><rect x="76" y="31" width="12" height="12" rx="2" fill="#26a641" data-date="2025-06-19" data-count="9"/><rect x="76" y="46" width="12" height="12" rx="2" fill="#39d353" data-date="2025-06-20" data-count="21"/><rect x="76" y="61" width="12" height="12" rx="2" fill="#161b22" data-date="2025-06-21" data-count="0"/><rect x="76" y="76" width="12" height="12" rx="2" fill="#161b22" data-date="2025-06-22" data-count="0"/><rect x="76" y="91" width="12" height="12" rx="2" fill="#39d353" data-date="2025-06-23" data-count="21"/><rect x="76" y="106" width="12" height="12" rx="2" fill="#0e4429" data-date="2025-06-24" data-count="2"/><rect x="91" y="16" width="12" height="12" rx="2" fill="#006d32" data-date="2025-06-25" data-count="4"/><rect x="91" y="31" width="12" height="12" rx="2" fill="#0e4429" data-date="2025-06-26" data-count="1"/><rect x="91" y="46" width="12" height="12" rx="2" fill="#161b22" data-date="2025-06-27" data-count="0"/><rect x="91" y="61" width="12" height="12" rx="2" fill="#161b22" data-date="2025-06-28" data-count="0"/><rect x="91" y="76" width="12" height="12" rx="2" fill="#161b22" data-date="2025-06-29" data-count="0"/><rect x="91" y="91" width="12" height="12" rx="2" fill="#0e4429" data-date="2025-06-30" data-count="2"/><rect x="91" y="106" width="12" height="12" rx="2" fill="#006d32" data-date="2025-07-01" data-count="5"/><rect x="106" y="16" width="12" height="12" rx="2" fill="#0e4429" data-date="2025-07-02" data-count="1"/><rect x="106" y="31" width="12" height="12" rx="2" fill="#161b22" data-date="2025-07-03" data-count="0"/><rect x="106" y="46" width="12" height="12" rx="2" fill="#0e4429" data-date="2025-07-04" data-count="1"/><rect x="106" y="61" width="12" height="12" rx="2" fill="#161b22" data-date="2025-07-05" data-count="0"/><rect x="106" y="76" width="12" height="12" rx="2" fill="#161b22" data-date="2025-07-06" data-count="0"/><rect x="106" y="91" width="12" height="12" rx="2" fill="#161b22" data-date="2025-07-07" data-count="0"/><rect x="106" y="106" width="12" height="12" rx="2" fill="#161b22" data-date="2025-07-08" data-count="0"/><rect x="121" y="16" width="12" height="12" rx="2" fill="#161b22" data-date="2025-07-09" data-count="0"/><rect x="121" y="31" width="12" height="12" rx="2" fill="#161b22" data-date="2025-07-10" data-count="0"/><rect x="121" y="46" width="12" height="12" rx="2" fill="#161b22" data-date="2025-07-11" data-count="0"/><rect x="121" y="61" width="12" height="12" rx="2" fill="#161b22" data-date="2025-07-12" data-count="0"/><rect x="121" y="76" width="12" height="12" rx="2" fill="#161b22" data-date="2025-07-13" data-count="0"/><rect x="121" y="91" width="12" height="12" rx="2" fill="#161b22" data-date="2025-07-14" data-count="0"/><rect x="121" y="106" width="12" height="12" rx="2" fill="#0e4429" data-date="2025-07-15" data-count="1"/><rect x="136" y="16" width="12" height="12" rx="2" fill="#0e4429" data-date="2025-07-16" data-count="1"/><rect x="136" y="31" width="12" height="12" rx="2" fill="#006d32" data-date="2025-07-17" data-count="4"/><rect x="136" y="46" width="12" height="12" rx="2" fill="#161b22" data-date="2025-07-18" data-count="0"/><rect x="136" y="61" width="12" height="12" rx="2" fill="#161b22" data-date="2025-07-19" data-count="0"/><rect x="136" y="76" width="12" height="12" rx="2" fill="#161b22" data-date="2025-07-20" data-count="0"/><rect x="136" y="91" width="12" height="12" rx="2" fill="#161b22" data-date="2025-07-21" data-count="0"/><rect x="136" y="106" width="12" height="12" rx="2" fill="#0e4429" data-date="2025-07-22" data-count="1"/><rect x="151" y="16" width="12" height="12" rx="2" fill="#161b22" data-date="2025-07-23" data-count="0"/><rect x="151" y="31" width="12" height="12" rx="2" fill="#006d32" data-date="2025-07-24" data-count="4"/><rect x="151" y="46" width="12" height="12" rx="2" fill="#161b22" data-date="2025-07-25" data-count="0"/><rect x="151" y="61" width="12" height="12" rx="2" fill="#161b22" data-date="2025-07-26" data-count="0"/><rect x="151" y="76" width="12" height="12" rx="2" fill="#161b22" data-date="2025-07-27" data-count="0"/><rect x="151" y="91" width="12" height="12" rx="2" fill="#39d353" data-date="2025-07-28" data-count="16"/><rect x="151" y="106" width="12" height="12" rx="2" fill="#006d32" data-date="2025-07-29" data-count="3"/><rect x="166" y="16" width="12" height="12" rx="2" fill="#39d353" data-date="2025-07-30" data-count="13"/><rect x="166" y="31" width="12" height="12" rx="2" fill="#161b22" data-date="2025-07-31" data-count="0"/><rect x="166" y="46" width="12" height="12" rx="2" fill="#161b22" data-date="2025-08-01" data-count="0"/><rect x="166" y="61" width="12" height="12" rx="2" fill="#161b22" data-date="2025-08-02" data-count="0"/><rect x="166" y="76" width="12" height="12" rx="2" fill="#161b22" data-date="2025-08-03" data-count="0"/><rect x="166" y="91" width="12" height="12" rx="2" fill="#161b22" data-date="2025-08-04" data-count="0"/><rect x="166" y="106" width="12" height="12" rx="2" fill="#161b22" data-date="2025-08-05" data-count="0"/><rect x="181" y="16" width="12" height="12" rx="2" fill="#161b22" data-date="2025-08-06" data-count="0"/><rect x="181" y="31" width="12" height="12" rx="2" fill="#161b22" data-date="2025-08-07" data-count="0"/><rect x="181" y="46" width="12" height="12" rx="2" fill="#161b22" data-date="2025-08-08" data-count="0"/><rect x="181" y="61" width="12" height="12" rx="2" fill="#161b22" data-date="2025-08-09" data-count="0"/><rect x="181" y="76" width="12" height="12" rx="2" fill="#161b22" data-date="2025-08-10" data-count="0"/><rect x="181" y="91" width="12" height="12" rx="2" fill="#161b22" data-date="2025-08-11" data-count="0"/><rect x="181" y="106" width="12" height="12" rx="2" fill="#161b22" data-date="2025-08-12" data-count="0"/><rect x="196" y="16" width="12" height="12" rx="2" fill="#0e4429" data-date="2025-08-13" data-count="1"/><rect x="196" y="31" width="12" height="12" rx="2" fill="#161b22" data-date="2025-08-14" data-count="0"/><rect x="196" y="46" width="12" height="12" rx="2" fill="#161b22" data-date="2025-08-15" data-count="0"/><rect x="196" y="61" width="12" height="12" rx="2" fill="#161b22" data-date="2025-08-16" data-count="0"/><rect x="196" y="76" width="12" height="12" rx="2" fill="#161b22" data-date="2025-08-17" data-count="0"/><rect x="196" y="91" width="12" height="12" rx="2" fill="#161b22" data-date="2025-08-18" data-count="0"/><rect x="196" y="106" width="12" height="12" rx="2" fill="#161b22" data-date="2025-08-19" data-count="0"/><rect x="211" y="16" width="12" height="12" rx="2" fill="#161b22" data-date="2025-08-20" data-count="0"/><rect x="211" y="31" width="12" height="12" rx="2" fill="#161b22" data-date="2025-08-21" data-count="0"/><rect x="211" y="46" width="12" height="12" rx="2" fill="#161b22" data-date="2025-08-22" data-count="0"/><rect x="211" y="61" width="12" height="12" rx="2" fill="#161b22" data-date="2025-08-23" data-count="0"/><rect x="211" y="76" width="12" height="12" rx="2" fill="#161b22" data-date="2025-08-24" data-count="0"/><rect x="211" y="91" width="12" height="12" rx="2" fill="#161b22" data-date="2025-08-25" data-count="0"/><rect x="211" y="106" width="12" height="12" rx="2" fill="#161b22" data-date="2025-08-26" data-count="0"/><rect x="226" y="16" width="12" height="12" rx="2" fill="#161b22" data-date="2025-08-27" data-count="0"/><rect x="226" y="31" width="12" height="12" rx="2" fill="#161b22" data-date="2025-08-28" data-count="0"/><rect x="226" y="46" width="12" height="12" rx="2" fill="#161b22" data-date="2025-08-29" data-count="0"/><rect x="226" y="61" width="12" height="12" rx="2" fill="#161b22" data-date="2025-08-30" data-count="0"/><rect x="226" y="76" width="12" height="12" rx="2" fill="#161b22" data-date="2025-08-31" data-count="0"/><rect x="226" y="91" width="12" height="12" rx="2" fill="#161b22" data-date="2025-09-01" data-count="0"/><rect x="226" y="106" width="12" height="12" rx="2" fill="#161b22" data-date="2025-09-02" data-count="0"/><rect x="241" y="16" width="12" height="12" rx="2" fill="#161b22" data-date="2025-09-03" data-count="0"/><rect x="241" y="31" width="12" height="12" rx="2" fill="#161b22" data-date="2025-09-04" data-count="0"/><rect x="241" y="46" width="12" height="12" rx="2" fill="#161b22" data-date="2025-09-05" data-count="0"/><rect x="241" y="61" width="12" height="12" rx="2" fill="#161b22" data-date="2025-09-06" data-count="0"/><rect x="241" y="76" width="12" height="12" rx="2" fill="#161b22" data-date="2025-09-07" data-count="0"/><rect x="241" y="91" width="12" height="12" rx="2" fill="#161b22" data-date="2025-09-08" data-count="0"/><rect x="241" y="106" width="12" height="12" rx="2" fill="#161b22" data-date="2025-09-09" data-count="0"/><rect x="256" y="16" width="12" height="12" rx="2" fill="#161b22" data-date="2025-09-10" data-count="0"/><rect x="256" y="31" width="12" height="12" rx="2" fill="#161b22" data-date="2025-09-11" data-count="0"/><rect x="256" y="46" width="12" height="12" rx="2" fill="#161b22" data-date="2025-09-12" data-count="0"/><rect x="256" y="61" width="12" height="12" rx="2" fill="#161b22" data-date="2025-09-13" data-count="0"/><rect x="256" y="76" width="12" height="12" rx="2" fill="#161b22" data-date="2025-09-14" data-count="0"/><rect x="256" y="91" width="12" height="12" rx="2" fill="#161b22" data-date="2025-09-15" data-count="0"/><rect x="256" y="106" width="12" height="12" rx="2" fill="#161b22" data-date="2025-09-16" data-count="0"/><rect x="271" y="16" width="12" height="12" rx="2" fill="#161b22" data-date="2025-09-17" data-count="0"/><rect x="271" y="31" width="12" height="12" rx="2" fill="#161b22" data-date="2025-09-18" data-count="0"/><rect x="271" y="46" width="12" height="12" rx="2" fill="#161b22" data-date="2025-09-19" data-count="0"/><rect x="271" y="61" width="12" height="12" rx="2" fill="#161b22" data-date="2025-09-20" data-count="0"/><rect x="271" y="76" width="12" height="12" rx="2" fill="#161b22" data-date="2025-09-21" data-count="0"/><rect x="271" y="91" width="12" height="12" rx="2" fill="#161b22" data-date="2025-09-22" data-count="0"/><rect x="271" y="106" width="12" height="12" rx="2" fill="#161b22" data-date="2025-09-23" data-count="0"/><rect x="286" y="16" width="12" height="12" rx="2" fill="#161b22" data-date="2025-09-24" data-count="0"/><rect x="286" y="31" width="12" height="12" rx="2" fill="#161b22" data-date="2025-09-25" data-count="0"/><rect x="286" y="46" width="12" height="12" rx="2" fill="#161b22" data-date="2025-09-26" data-count="0"/><rect x="286" y="61" width="12" height="12" rx="2" fill="#161b22" data-date="2025-09-27" data-count="0"/><rect x="286" y="76" width="12" height="12" rx="2" fill="#161b22" data-date="2025-09-28" data-count="0"/><rect x="286" y="91" width="12" height="12" rx="2" fill="#161b22" data-date="2025-09-29" data-count="0"/><rect x="286" y="106" width="12" height="12" rx="2" fill="#161b22" data-date="2025-09-30" data-count="0"/><rect x="301" y="16" width="12" height="12" rx="2" fill="#161b22" data-date="2025-10-01" data-count="0"/><rect x="301" y="31" width="12" height="12" rx="2" fill="#161b22" data-date="2025-10-02" data-count="0"/><rect x="301" y="46" width="12" height="12" rx="2" fill="#161b22" data-date="2025-10-03" data-count="0"/><rect x="301" y="61" width="12" height="12" rx="2" fill="#161b22" data-date="2025-10-04" data-count="0"/><rect x="301" y="76" width="12" height="12" rx="2" fill="#161b22" data-date="2025-10-05" data-count="0"/><rect x="301" y="91" width="12" height="12" rx="2" fill="#161b22" data-date="2025-10-06" data-count="0"/><rect x="301" y="106" width="12" height="12" rx="2" fill="#161b22" data-date="2025-10-07" data-count="0"/><rect x="316" y="16" width="12" height="12" rx="2" fill="#161b22" data-date="2025-10-08" data-count="0"/><rect x="316" y="31" width="12" height="12" rx="2" fill="#161b22" data-date="2025-10-09" data-count="0"/><rect x="316" y="46" width="12" height="12" rx="2" fill="#161b22" data-date="2025-10-10" data-count="0"/><rect x="316" y="61" width="12" height="12" rx="2" fill="#161b22" data-date="2025-10-11" data-count="0"/><rect x="316" y="76" width="12" height="12" rx="2" fill="#161b22" data-date="2025-10-12" data-count="0"/><rect x="316" y="91" width="12" height="12" rx="2" fill="#161b22" data-date="2025-10-13" data-count="0"/><rect x="316" y="106" width="12" height="12" rx="2" fill="#161b22" data-date="2025-10-14" data-count="0"/><rect x="331" y="16" width="12" height="12" rx="2" fill="#161b22" data-date="2025-10-15" data-count="0"/><rect x="331" y="31" width="12" height="12" rx="2" fill="#161b22" data-date="2025-10-16" data-count="0"/><rect x="331" y="46" width="12" height="12" rx="2" fill="#161b22" data-date="2025-10-17" data-count="0"/><rect x="331" y="61" width="12" height="12" rx="2" fill="#161b22" data-date="2025-10-18" data-count="0"/><rect x="331" y="76" width="12" height="12" rx="2" fill="#161b22" data-date="2025-10-19" data-count="0"/><rect x="331" y="91" width="12" height="12" rx="2" fill="#161b22" data-date="2025-10-20" data-count="0"/><rect x="331" y="106" width="12" height="12" rx="2" fill="#161b22" data-date="2025-10-21" data-count="0"/><rect x="346" y="16" width="12" height="12" rx="2" fill="#161b22" data-date="2025-10-22" data-count="0"/><rect x="346" y="31" width="12" height="12" rx="2" fill="#161b22" data-date="2025-10-23" data-count="0"/><rect x="346" y="46" width="12" height="12" rx="2" fill="#161b22" data-date="2025-10-24" data-count="0"/><rect x="346" y="61" width="12" height="12" rx="2" fill="#161b22" data-date="2025-10-25" data-count="0"/><rect x="346" y="76" width="12" height="12" rx="2" fill="#161b22" data-date="2025-10-26" data-count="0"/><rect x="346" y="91" width="12" height="12" rx="2" fill="#161b22" data-date="2025-10-27" data-count="0"/><rect x="346" y="106" width="12" height="12" rx="2" fill="#161b22" data-date="2025-10-28" data-count="0"/><rect x="361" y="16" width="12" height="12" rx="2" fill="#161b22" data-date="2025-10-29" data-count="0"/><rect x="361" y="31" width="12" height="12" rx="2" fill="#161b22" data-date="2025-10-30" data-count="0"/><rect x="361" y="46" width="12" height="12" rx="2" fill="#161b22" data-date="2025-10-31" data-count="0"/><rect x="361" y="61" width="12" height="12" rx="2" fill="#161b22" data-date="2025-11-01" data-count="0"/><rect x="361" y="76" width="12" height="12" rx="2" fill="#161b22" data-date="2025-11-02" data-count="0"/><rect x="361" y="91" width="12" height="12" rx="2" fill="#161b22" data-date="2025-11-03" data-count="0"/><rect x="361" y="106" width="12" height="12" rx="2" fill="#161b22" data-date="2025-11-04" data-count="0"/><rect x="376" y="16" width="12" height="12" rx="2" fill="#161b22" data-date="2025-11-05" data-count="0"/><rect x="376" y="31" width="12" height="12" rx="2" fill="#161b22" data-date="2025-11-06" data-count="0"/><rect x="376" y="46" width="12" height="12" rx="2" fill="#161b22" data-date="2025-11-07" data-count="0"/><rect x="376" y="61" width="12" height="12" rx="2" fill="#161b22" data-date="2025-11-08" data-count="0"/><rect x="376" y="76" width="12" height="12" rx="2" fill="#161b22" data-date="2025-11-09" data-count="0"/><rect x="376" y="91" width="12" height="12" rx="2" fill="#161b22" data-date="2025-11-10" data-count="0"/><rect x="376" y="106" width="12" height="12" rx="2" fill="#161b22" data-date="2025-11-11" data-count="0"/><rect x="391" y="16" width="12" height="12" rx="2" fill="#161b22" data-date="2025-11-12" data-count="0"/><rect x="391" y="31" width="12" height="12" rx="2" fill="#161b22" data-date="2025-11-13" data-count="0"/><rect x="391" y="46" width="12" height="12" rx="2" fill="#161b22" data-date="2025-11-14" data-count="0"/><rect x="391" y="61" width="12" height="12" rx="2" fill="#161b22" data-date="2025-11-15" data-count="0"/><rect x="391" y="76" width="12" height="12" rx="2" fill="#161b22" data-date="2025-11-16" data-count="0"/><rect x="391" y="91" width="12" height="12" rx="2" fill="#161b22" data-date="2025-11-17" data-count="0"/><rect x="391" y="106" width="12" height="12" rx="2" fill="#161b22" data-date="2025-11-18" data-count="0"/><rect x="406" y="16" width="12" height="12" rx="2" fill="#161b22" data-date="2025-11-19" data-count="0"/><rect x="406" y="31" width="12" height="12" rx="2" fill="#161b22" data-date="2025-11-20" data-count="0"/><rect x="406" y="46" width="12" height="12" rx="2" fill="#161b22" data-date="2025-11-21" data-count="0"/><rect x="406" y="61" width="12" height="12" rx="2" fill="#161b22" data-date="2025-11-22" data-count="0"/><rect x="406" y="76" width="12" height="12" rx="2" fill="#161b22" data-date="2025-11-23" data-count="0"/><rect x="406" y="91" width="12" height="12" rx="2" fill="#161b22" data-date="2025-11-24" data-count="0"/><rect x="406" y="106" width="12" height="12" rx="2" fill="#161b22" data-date="2025-11-25" data-count="0"/><rect x="421" y="16" width="12" height="12" rx="2" fill="#161b22" data-date="2025-11-26" data-count="0"/><rect x="421" y="31" width="12" height="12" rx="2" fill="#161b22" data-date="2025-11-27" data-count="0"/><rect x="421" y="46" width="12" height="12" rx="2" fill="#161b22" data-date="2025-11-28" data-count="0"/><rect x="421" y="61" width="12" height="12" rx="2" fill="#161b22" data-date="2025-11-29" data-count="0"/><rect x="421" y="76" width="12" height="12" rx="2" fill="#161b22" data-date="2025-11-30" data-count="0"/><rect x="421" y="91" width="12" height="12" rx="2" fill="#161b22" data-date="2025-12-01" data-count="0"/><rect x="421" y="106" width="12" height="12" rx="2" fill="#161b22" data-date="2025-12-02" data-count="0"/><rect x="436" y="16" width="12" height="12" rx="2" fill="#161b22" data-date="2025-12-03" data-count="0"/><rect x="436" y="31" width="12" height="12" rx="2" fill="#161b22" data-date="2025-12-04" data-count="0"/><rect x="436" y="46" width="12" height="12" rx="2" fill="#161b22" data-date="2025-12-05" data-count="0"/><rect x="436" y="61" width="12" height="12" rx="2" fill="#161b22" data-date="2025-12-06" data-count="0"/><rect x="436" y="76" width="12" height="12" rx="2" fill="#161b22" data-date="2025-12-07" data-count="0"/><rect x="436" y="91" width="12" height="12" rx="2" fill="#161b22" data-date="2025-12-08" data-count="0"/><rect x="436" y="106" width="12" height="12" rx="2" fill="#161b22" data-date="2025-12-09" data-count="0"/><rect x="451" y="16" width="12" height="12" rx="2" fill="#161b22" data-date="2025-12-10" data-count="0"/><rect x="451" y="31" width="12" height="12" rx="2" fill="#161b22" data-date="2025-12-11" data-count="0"/><rect x="451" y="46" width="12" height="12" rx="2" fill="#161b22" data-date="2025-12-12" data-count="0"/><rect x="451" y="61" width="12" height="12" rx="2" fill="#161b22" data-date="2025-12-13" data-count="0"/><rect x="451" y="76" width="12" height="12" rx="2" fill="#161b22" data-date="2025-12-14" data-count="0"/><rect x="451" y="91" width="12" height="12" rx="2" fill="#161b22" data-date="2025-12-15" data-count="0"/><rect x="451" y="106" width="12" height="12" rx="2" fill="#161b22" data-date="2025-12-16" data-count="0"/><rect x="466" y="16" width="12" height="12" rx="2" fill="#161b22" data-date="2025-12-17" data-count="0"/><rect x="466" y="31" width="12" height="12" rx="2" fill="#161b22" data-date="2025-12-18" data-count="0"/><rect x="466" y="46" width="12" height="12" rx="2" fill="#161b22" data-date="2025-12-19" data-count="0"/><rect x="466" y="61" width="12" height="12" rx="2" fill="#161b22" data-date="2025-12-20" data-count="0"/><rect x="466" y="76" width="12" height="12" rx="2" fill="#161b22" data-date="2025-12-21" data-count="0"/><rect x="466" y="91" width="12" height="12" rx="2" fill="#161b22" data-date="2025-12-22" data-count="0"/><rect x="466" y="106" width="12" height="12" rx="2" fill="#161b22" data-date="2025-12-23" data-count="0"/><rect x="481" y="16" width="12" height="12" rx="2" fill="#161b22" data-date="2025-12-24" data-count="0"/><rect x="481" y="31" width="12" height="12" rx="2" fill="#161b22" data-date="2025-12-25" data-count="0"/><rect x="481" y="46" width="12" height="12" rx="2" fill="#161b22" data-date="2025-12-26" data-count="0"/><rect x="481" y="61" width="12" height="12" rx="2" fill="#161b22" data-date="2025-12-27" data-count="0"/><rect x="481" y="76" width="12" height="12" rx="2" fill="#161b22" data-date="2025-12-28" data-count="0"/><rect x="481" y="91" width="12" height="12" rx="2" fill="#161b22" data-date="2025-12-29" data-count="0"/><rect x="481" y="106" width="12" height="12" rx="2" fill="#161b22" data-date="2025-12-30" data-count="0"/><rect x="496" y="16" width="12" height="12" rx="2" fill="#161b22" data-date="2025-12-31" data-count="0"/><rect x="496" y="31" width="12" height="12" rx="2" fill="#161b22" data-date="2026-01-01" data-count="0"/><rect x="496" y="46" width="12" height="12" rx="2" fill="#161b22" data-date="2026-01-02" data-count="0"/><rect x="496" y="61" width="12" height="12" rx="2" fill="#161b22" data-date="2026-01-03" data-count="0"/><rect x="496" y="76" width="12" height="12" rx="2" fill="#161b22" data-date="2026-01-04" data-count="0"/><rect x="496" y="91" width="12" height="12" rx="2" fill="#161b22" data-date="2026-01-05" data-count="0"/><rect x="496" y="106" width="12" height="12" rx="2" fill="#161b22" data-date="2026-01-06" data-count="0"/><rect x="511" y="16" width="12" height="12" rx="2" fill="#161b22" data-date="2026-01-07" data-count="0"/><rect x="511" y="31" width="12" height="12" rx="2" fill="#161b22" data-date="2026-01-08" data-count="0"/><rect x="511" y="46" width="12" height="12" rx="2" fill="#161b22" data-date="2026-01-09" data-count="0"/><rect x="511" y="61" width="12" height="12" rx="2" fill="#161b22" data-date="2026-01-10" data-count="0"/><rect x="511" y="76" width="12" height="12" rx="2" fill="#161b22" data-date="2026-01-11" data-count="0"/><rect x="511" y="91" width="12" height="12" rx="2" fill="#161b22" data-date="2026-01-12" data-count="0"/><rect x="511" y="106" width="12" height="12" rx="2" fill="#161b22" data-date="2026-01-13" data-count="0"/><rect x="526" y="16" width="12" height="12" rx="2" fill="#161b22" data-date="2026-01-14" data-count="0"/><rect x="526" y="31" width="12" height="12" rx="2" fill="#161b22" data-date="2026-01-15" data-count="0"/><rect x="526" y="46" width="12" height="12" rx="2" fill="#161b22" data-date="2026-01-16" data-count="0"/><rect x="526" y="61" width="12" height="12" rx="2" fill="#161b22" data-date="2026-01-17" data-count="0"/><rect x="526" y="76" width="12" height="12" rx="2" fill="#161b22" data-date="2026-01-18" data-count="0"/><rect x="526" y="91" width="12" height="12" rx="2" fill="#161b22" data-date="2026-01-19" data-count="0"/><rect x="526" y="106" width="12" height="12" rx="2" fill="#161b22" data-date="2026-01-20" data-count="0"/><rect x="541" y="16" width="12" height="12" rx="2" fill="#161b22" data-date="2026-01-21" data-count="0"/><rect x="541" y="31" width="12" height="12" rx="2" fill="#161b22" data-date="2026-01-22" data-count="0"/><rect x="541" y="46" width="12" height="12" rx="2" fill="#161b22" data-date="2026-01-23" data-count="0"/><rect x="541" y="61" width="12" height="12" rx="2" fill="#161b22" data-date="2026-01-24" data-count="0"/><rect x="541" y="76" width="12" height="12" rx="2" fill="#161b22" data-date="2026-01-25" data-count="0"/><rect x="541" y="91" width="12" height="12" rx="2" fill="#161b22" data-date="2026-01-26" data-count="0"/><rect x="541" y="106" width="12" height="12" rx="2" fill="#161b22" data-date="2026-01-27" data-count="0"/><rect x="556" y="16" width="12" height="12" rx="2" fill="#161b22" data-date="2026-01-28" data-count="0"/><rect x="556" y="31" width="12" height="12" rx="2" fill="#161b22" data-date="2026-01-29" data-count="0"/><rect x="556" y="46" width="12" height="12" rx="2" fill="#161b22" data-date="2026-01-30" data-count="0"/><rect x="556" y="61" width="12" height="12" rx="2" fill="#161b22" data-date="2026-01-31" data-count="0"/><rect x="556" y="76" width="12" height="12" rx="2" fill="#161b22" data-date="2026-02-01" data-count="0"/><rect x="556" y="91" width="12" height="12" rx="2" fill="#161b22" data-date="2026-02-02" data-count="0"/><rect x="556" y="106" width="12" height="12" rx="2" fill="#161b22" data-date="2026-02-03" data-count="0"/><rect x="571" y="16" width="12" height="12" rx="2" fill="#161b22" data-date="2026-02-04" data-count="0"/><rect x="571" y="31" width="12" height="12" rx="2" fill="#161b22" data-date="2026-02-05" data-count="0"/><rect x="571" y="46" width="12" height="12" rx="2" fill="#161b22" data-date="2026-02-06" data-count="0"/><rect x="571" y="61" width="12" height="12" rx="2" fill="#161b22" data-date="2026-02-07" data-count="0"/><rect x="571" y="76" width="12" height="12" rx="2" fill="#161b22" data-date="2026-02-08" data-count="0"/><rect x="571" y="91" width="12" height="12" rx="2" fill="#161b22" data-date="2026-02-09" data-count="0"/><rect x="571" y="106" width="12" height="12" rx="2" fill="#161b22" data-date="2026-02-10" data-count="0"/><rect x="586" y="16" width="12" height="12" rx="2" fill="#161b22" data-date="2026-02-11" data-count="0"/><rect x="586" y="31" width="12" height="12" rx="2" fill="#161b22" data-date="2026-02-12" data-count="0"/><rect x="586" y="46" width="12" height="12" rx="2" fill="#161b22" data-date="2026-02-13" data-count="0"/><rect x="586" y="61" width="12" height="12" rx="2" fill="#161b22" data-date="2026-02-14" data-count="0"/><rect x="586" y="76" width="12" height="12" rx="2" fill="#161b22" data-date="2026-02-15" data-count="0"/><rect x="586" y="91" width="12" height="12" rx="2" fill="#161b22" data-date="2026-02-16" data-count="0"/><rect x="586" y="106" width="12" height="12" rx="2" fill="#161b22" data-date="2026-02-17" data-count="0"/><rect x="601" y="16" width="12" height="12" rx="2" fill="#161b22" data-date="2026-02-18" data-count="0"/><rect x="601" y="31" width="12" height="12" rx="2" fill="#161b22" data-date="2026-02-19" data-count="0"/><rect x="601" y="46" width="12" height="12" rx="2" fill="#161b22" data-date="2026-02-20" data-count="0"/><rect x="601" y="61" width="12" height="12" rx="2" fill="#161b22" data-date="2026-02-21" data-count="0"/><rect x="601" y="76" width="12" height="12" rx="2" fill="#161b22" data-date="2026-02-22" data-count="0"/><rect x="601" y="91" width="12" height="12" rx="2" fill="#161b22" data-date="2026-02-23" data-count="0"/><rect x="601" y="106" width="12" height="12" rx="2" fill="#161b22" data-date="2026-02-24" data-count="0"/><rect x="616" y="16" width="12" height="12" rx="2" fill="#161b22" data-date="2026-02-25" data-count="0"/><rect x="616" y="31" width="12" height="12" rx="2" fill="#161b22" data-date="2026-02-26" data-count="0"/><rect x="616" y="46" width="12" height="12" rx="2" fill="#161b22" data-date="2026-02-27" data-count="0"/><rect x="616" y="61" width="12" height="12" rx="2" fill="#161b22" data-date="2026-02-28" data-count="0"/><rect x="616" y="76" width="12" height="12" rx="2" fill="#161b22" data-date="2026-03-01" data-count="0"/><rect x="616" y="91" width="12" height="12" rx="2" fill="#161b22" data-date="2026-03-02" data-count="0"/><rect x="616" y="106" width="12" height="12" rx="2" fill="#161b22" data-date="2026-03-03" data-count="0"/><rect x="631" y="16" width="12" height="12" rx="2" fill="#161b22" data-date="2026-03-04" data-count="0"/><rect x="631" y="31" width="12" height="12" rx="2" fill="#161b22" data-date="2026-03-05" data-count="0"/><rect x="631" y="46" width="12" height="12" rx="2" fill="#161b22" data-date="2026-03-06" data-count="0"/><rect x="631" y="61" width="12" height="12" rx="2" fill="#161b22" data-date="2026-03-07" data-count="0"/><rect x="631" y="76" width="12" height="12" rx="2" fill="#161b22" data-date="2026-03-08" data-count="0"/><rect x="631" y="91" width="12" height="12" rx="2" fill="#161b22" data-date="2026-03-09" data-count="0"/><rect x="631" y="106" width="12" height="12" rx="2" fill="#161b22" data-date="2026-03-10" data-count="0"/><rect x="646" y="16" width="12" height="12" rx="2" fill="#161b22" data-date="2026-03-11" data-count="0"/><rect x="646" y="31" width="12" height="12" rx="2" fill="#161b22" data-date="2026-03-12" data-count="0"/><rect x="646" y="46" width="12" height="12" rx="2" fill="#161b22" data-date="2026-03-13" data-count="0"/><rect x="646" y="61" width="12" height="12" rx="2" fill="#161b22" data-date="2026-03-14" data-count="0"/><rect x="646" y="76" width="12" height="12" rx="2" fill="#161b22" data-date="2026-03-15" data-count="0"/><rect x="646" y="91" width="12" height="12" rx="2" fill="#161b22" data-date="2026-03-16" data-count="0"/><rect x="646" y="106" width="12" height="12" rx="2" fill="#161b22" data-date="2026-03-17" data-count="0"/><rect x="661" y="16" width="12" height="12" rx="2" fill="#161b22" data-date="2026-03-18" data-count="0"/><rect x="661" y="31" width="12" height="12" rx="2" fill="#161b22" data-date="2026-03-19" data-count="0"/><rect x="661" y="46" width="12" height="12" rx="2" fill="#161b22" data-date="2026-03-20" data-count="0"/><rect x="661" y="61" width="12" height="12" rx="2" fill="#161b22" data-date="2026-03-21" data-count="0"/><rect x="661" y="76" width="12" height="12" rx="2" fill="#161b22" data-date="2026-03-22" data-count="0"/><rect x="661" y="91" width="12" height="12" rx="2" fill="#161b22" data-date="2026-03-23" data-count="0"/><rect x="661" y="106" width="12" height="12" rx="2" fill="#161b22" data-date="2026-03-24" data-count="0"/><rect x="676" y="16" width="12" height="12" rx="2" fill="#161b22" data-date="2026-03-25" data-count="0"/><rect x="676" y="31" width="12" height="12" rx="2" fill="#161b22" data-date="2026-03-26" data-count="0"/><rect x="676" y="46" width="12" height="12" rx="2" fill="#161b22" data-date="2026-03-27" data-count="0"/><rect x="676" y="61" width="12" height="12" rx="2" fill="#161b22" data-date="2026-03-28" data-count="0"/><rect x="676" y="76" width="12" height="12" rx="2" fill="#161b22" data-date="2026-03-29" data-count="0"/><rect x="676" y="91" width="12" height="12" rx="2" fill="#161b22" data-date="2026-03-30" data-count="0"/><rect x="676" y="106" width="12" height="12" rx="2" fill="#161b22" data-date="2026-03-31" data-count="0"/><rect x="691" y="16" width="12" height="12" rx="2" fill="#161b22" data-date="2026-04-01" data-count="0"/><rect x="691" y="31" width="12" height="12" rx="2" fill="#161b22" data-date="2026-04-02" data-count="0"/><rect x="691" y="46" width="12" height="12" rx="2" fill="#161b22" data-date="2026-04-03" data-count="0"/><rect x="691" y="61" width="12" height="12" rx="2" fill="#161b22" data-date="2026-04-04" data-count="0"/><rect x="691" y="76" width="12" height="12" rx="2" fill="#161b22" data-date="2026-04-05" data-count="0"/><rect x="691" y="91" width="12" height="12" rx="2" fill="#161b22" data-date="2026-04-06" data-count="0"/><rect x="691" y="106" width="12" height="12" rx="2" fill="#161b22" data-date="2026-04-07" data-count="0"/><rect x="706" y="16" width="12" height="12" rx="2" fill="#161b22" data-date="2026-04-08" data-count="0"/><rect x="706" y="31" width="12" height="12" rx="2" fill="#161b22" data-date="2026-04-09" data-count="0"/><rect x="706" y="46" width="12" height="12" rx="2" fill="#161b22" data-date="2026-04-10" data-count="0"/><rect x="706" y="61" width="12" height="12" rx="2" fill="#161b22" data-date="2026-04-11" data-count="0"/><rect x="706" y="76" width="12" height="12" rx="2" fill="#161b22" data-date="2026-04-12" data-count="0"/><rect x="706" y="91" width="12" height="12" rx="2" fill="#161b22" data-date="2026-04-13" data-count="0"/><rect x="706" y="106" width="12" height="12" rx="2" fill="#161b22" data-date="2026-04-14" data-count="0"/><rect x="721" y="16" width="12" height="12" rx="2" fill="#161b22" data-date="2026-04-15" data-count="0"/><rect x="721" y="31" width="12" height="12" rx="2" fill="#161b22" data-date="2026-04-16" data-count="0"/><rect x="721" y="46" width="12" height="12" rx="2" fill="#161b22" data-date="2026-04-17" data-count="0"/><rect x="721" y="61" width="12" height="12" rx="2" fill="#161b22" data-date="2026-04-18" data-count="0"/><rect x="721" y="76" width="12" height="12" rx="2" fill="#161b22" data-date="2026-04-19" data-count="0"/><rect x="721" y="91" width="12" height="12" rx="2" fill="#161b22" data-date="2026-04-20" data-count="0"/><rect x="721" y="106" width="12" height="12" rx="2" fill="#161b22" data-date="2026-04-21" data-count="0"/><rect x="736" y="16" width="12" height="12" rx="2" fill="#161b22" data-date="2026-04-22" data-count="0"/><rect x="736" y="31" width="12" height="12" rx="2" fill="#161b22" data-date="2026-04-23" data-count="0"/><rect x="736" y="46" width="12" height="12" rx="2" fill="#161b22" data-date="2026-04-24" data-count="0"/><rect x="736" y="61" width="12" height="12" rx="2" fill="#161b22" data-date="2026-04-25" data-count="0"/><rect x="736" y="76" width="12" height="12" rx="2" fill="#161b22" data-date="2026-04-26" data-count="0"/><rect x="736" y="91" width="12" height="12" rx="2" fill="#161b22" data-date="2026-04-27" data-count="0"/><rect x="736" y="106" width="12" height="12" rx="2" fill="#161b22" data-date="2026-04-28" data-count="0"/><rect x="751" y="16" width="12" height="12" rx="2" fill="#161b22" data-date="2026-04-29" data-count="0"/><rect x="751" y="31" width="12" height="12" rx="2" fill="#161b22" data-date="2026-04-30" data-count="0"/><rect x="751" y="46" width="12" height="12" rx="2" fill="#161b22" data-date="2026-05-01" data-count="0"/><rect x="751" y="61" width="12" height="12" rx="2" fill="#161b22" data-date="2026-05-02" data-count="0"/><rect x="751" y="76" width="12" height="12" rx="2" fill="#161b22" data-date="2026-05-03" data-count="0"/><rect x="751" y="91" width="12" height="12" rx="2" fill="#161b22" data-date="2026-05-04" data-count="0"/><rect x="751" y="106" width="12" height="12" rx="2" fill="#161b22" data-date="2026-05-05" data-count="0"/><rect x="766" y="16" width="12" height="12" rx="2" fill="#161b22" data-date="2026-05-06" data-count="0"/><rect x="766" y="31" width="12" height="12" rx="2" fill="#161b22" data-date="2026-05-07" data-count="0"/><rect x="766" y="46" width="12" height="12" rx="2" fill="#161b22" data-date="2026-05-08" data-count="0"/><rect x="766" y="61" width="12" height="12" rx="2" fill="#161b22" data-date="2026-05-09" data-count="0"/><rect x="766" y="76" width="12" height="12" rx="2" fill="#161b22" data-date="2026-05-10" data-count="0"/><rect x="766" y="91" width="12" height="12" rx="2" fill="#161b22" data-date="2026-05-11" data-count="0"/><rect x="766" y="106" width="12" height="12" rx="2" fill="#161b22" data-date="2026-05-12" data-count="0"/><rect x="781" y="16" width="12" height="12" rx="2" fill="#161b22" data-date="2026-05-13" data-count="0"/><rect x="781" y="31" width="12" height="12" rx="2" fill="#161b22" data-date="2026-05-14" data-count="0"/><rect x="781" y="46" width="12" height="12" rx="2" fill="#161b22" data-date="2026-05-15" data-count="0"/><rect x="781" y="61" width="12" height="12" rx="2" fill="#161b22" data-date="2026-05-16" data-count="0"/><rect x="781" y="76" width="12" height="12" rx="2" fill="#161b22" data-date="2026-05-17" data-count="0"/><rect x="781" y="91" width="12" height="12" rx="2" fill="#161b22" data-date="2026-05-18" data-count="0"/><rect x="781" y="106" width="12" height="12" rx="2" fill="#161b22" data-date="2026-05-19" data-count="0"/><rect x="796" y="16" width="12" height="12" rx="2" fill="#161b22" data-date="2026-05-20" data-count="0"/><rect x="796" y="31" width="12" height="12" rx="2" fill="#161b22" data-date="2026-05-21" data-count="0"/><rect x="796" y="46" width="12" height="12" rx="2" fill="#161b22" data-date="2026-05-22" data-count="0"/><rect x="796" y="61" width="12" height="12" rx="2" fill="#161b22" data-date="2026-05-23" data-count="0"/><rect x="796" y="76" width="12" height="12" rx="2" fill="#161b22" data-date="2026-05-24" data-count="0"/><rect x="796" y="91" width="12" height="12" rx="2" fill="#161b22" data-date="2026-05-25" data-count="0"/><rect x="796" y="106" width="12" height="12" rx="2" fill="#161b22" data-date="2026-05-26" data-count="0"/>
  <text x="16" y="130" fill="#8b949e" font-family="Segoe UI, sans-serif" font-size="11">324 commits · 33 active days · Asia/Seoul</text>
</svg>